<svg width="14" height="14" viewBox="0 0 14 14" fill="none" xmlns="http://www.w3.org/2000/svg">
<path d="M6.99986 8.49638L2.34474 13.1633C2.12936 13.377 1.87799 13.4839 1.59056 13.4839C1.30321 13.4839 1.05191 13.377 0.836738 13.1633C0.622988 12.9495 0.516113 12.7001 0.516113 12.4151C0.516113 12.1301 0.622988 11.8808 0.836738 11.667L5.50361 7.00013L0.836738 2.38063C0.622988 2.16524 0.516113 1.9138 0.516113 1.62645C0.516113 1.3391 0.622988 1.0878 0.836738 0.872627C1.05049 0.658877 1.29986 0.552002 1.58486 0.552002C1.86986 0.552002 2.11924 0.658877 2.33299 0.872627L6.99986 5.5395L11.6194 0.872627C11.811 0.658877 12.0565 0.552002 12.3557 0.552002C12.655 0.552002 12.9122 0.658877 13.1274 0.872627C13.3411 1.08638 13.448 1.33575 13.448 1.62075C13.448 1.90575 13.3411 2.15513 13.1274 2.36888L8.46049 7.00013L13.1274 11.6552C13.3411 11.8706 13.448 12.1221 13.448 12.4094C13.448 12.6968 13.3411 12.9481 13.1274 13.1633C12.9136 13.377 12.6642 13.4839 12.3792 13.4839C12.0942 13.4839 11.8449 13.377 11.6311 13.1633L6.99986 8.49638Z" fill="#98959D"/>
</svg>
